<svg id="Capa_1" data-name="Capa 1" xmlns="http://www.w3.org/2000/svg" viewBox="0 0 89.38 99.59"><defs><style>.cls-1{fill:#fff;}</style></defs><title>Logotipo</title><path class="cls-1" d="M-631,6.25a7,7,0,0,1-4.58,1.69A7.06,7.06,0,0,1-642.64.89a7.06,7.06,0,0,1,7.06-7.06A7.06,7.06,0,0,1-628.52.89a7,7,0,0,1-.57,2.79l6.7,4.95V1.51a12.32,12.32,0,0,0-12.32-12.32H-647.6A16.67,16.67,0,0,0-664.27,5.87V15l6.86,5.06a7,7,0,0,1,4.94-2,7.06,7.06,0,0,1,7.06,7.06,7.06,7.06,0,0,1-7.06,7.06,7.06,7.06,0,0,1-7.06-7.06,7,7,0,0,1,.4-2.34L-664.27,19v5.43A12.32,12.32,0,0,0-652,36.7h12.89A16.67,16.67,0,0,0-622.39,20V12.6Z" transform="translate(664.27 62.89)"/><path class="cls-1" d="M-592-10.81h-8.14A16.67,16.67,0,0,0-616.76,5.87V24.5a12.2,12.2,0,0,0,12.2,12.2h13A16.67,16.67,0,0,0-574.89,20V6.26A17.07,17.07,0,0,0-592-10.81ZM-579.51,6A11.78,11.78,0,0,1-590.67,17.3a11.7,11.7,0,0,1-7.5-2.24l-3.74,4.05a1.6,1.6,0,0,1-2.26.09,1.6,1.6,0,0,1-.09-2.26l3.79-4.11A11.69,11.69,0,0,1-603,5.22,11.78,11.78,0,0,1-591.64-6.17,11.75,11.75,0,0,1-579.51,6Z" transform="translate(664.27 62.89)"/><path class="cls-1" d="M-639.06-62.89h-8.53a16.67,16.67,0,0,0-16.67,16.67v14.16A16.67,16.67,0,0,0-647.6-15.38h8.53a16.67,16.67,0,0,0,16.67-16.67V-46.22A16.67,16.67,0,0,0-639.06-62.89Zm-4.27,33.43a10.75,10.75,0,0,1-4.48-1l-2.34,2.94a1.6,1.6,0,0,1-2.25.25,1.6,1.6,0,0,1-.25-2.25l2.15-2.7a10.77,10.77,0,0,1-3.63-8.07,10.8,10.8,0,0,1,10.8-10.8,10.76,10.76,0,0,1,4.4.94l2.09-2.62A1.6,1.6,0,0,1-634.6-53a1.6,1.6,0,0,1,.25,2.25l-1.88,2.36a10.77,10.77,0,0,1,3.69,8.12A10.8,10.8,0,0,1-643.33-29.46Z" transform="translate(664.27 62.89)"/><path class="cls-1" d="M-591.56-62.89h-8.53a16.67,16.67,0,0,0-16.67,16.67V-27.5a12.12,12.12,0,0,0,9.34,11.79,11.75,11.75,0,0,1,11.6-9.91,11.75,11.75,0,0,1,11.6,9.91,12.12,12.12,0,0,0,9.34-11.79V-46.22A16.67,16.67,0,0,0-591.56-62.89Zm-2.8,24.06v3.65a1.52,1.52,0,0,1-1.52,1.52,1.52,1.52,0,0,1-1.52-1.52V-38.8a7.06,7.06,0,0,1-5.6-6.91,7.06,7.06,0,0,1,7.06-7.06,7.06,7.06,0,0,1,7.06,7.06A7.06,7.06,0,0,1-594.36-38.83Z" transform="translate(664.27 62.89)"/></svg>